<svg xmlns="http://www.w3.org/2000/svg" viewBox="0 0 64 64" id="engineer">
  <path fill="#3d9ae2" d="M45.58 35.79 40 34.16V39a2 2 0 0 0-4 0v-3l-4 3-4-3v3a2 2 0 0 0-4 0v-4.84l-5.58 1.63A6.013 6.013 0 0 0 14 41.58V57a4 4 0 0 0 4 4h32V41.58a6.013 6.013 0 0 0-4.42-5.79Z"></path>
  <path fill="#e6e7e8" d="M25 47v8h6v6h12V47H25z"></path>
  <path fill="#1e81ce" d="M40 34.16V39a2 2 0 0 0-4 0v-6Z"></path>
  <path fill="#ffc477" d="M34 55a3 3 0 0 1 0 6h-3v-6Z"></path>
  <path fill="#1e81ce" d="M28 36v3a2 2 0 0 0-4 0v-4.84L28 33Z"></path>
  <path fill="#f7910c" d="M43 16a1.986 1.986 0 0 1-1.47 1.92A1.586 1.586 0 0 1 41 18H23a1.586 1.586 0 0 1-.53-.08 1.785 1.785 0 0 1-.88-.51A1.955 1.955 0 0 1 21 16a2.006 2.006 0 0 1 2-2h18a2.015 2.015 0 0 1 2 2Z"></path>
  <path fill="#ffa733" d="M33 3h-2a1 1 0 0 0-1 1v10h4V4a1 1 0 0 0-1-1Z"></path>
  <path fill="#ffc477" d="M36 29v7l-4 3-4-3v-7h8z"></path>
  <path fill="#ffb655" d="M36 29v3.06a8.981 8.981 0 0 1-8 0V29Z"></path>
  <path fill="#ffc477" d="M41 18v4a9 9 0 0 1-13 8.06A9.028 9.028 0 0 1 23 22v-4Z"></path>
  <path fill="#ffb655" d="M23 18h18v2H23z"></path>
  <path fill="#ff9811" d="M39.64 9.26a8.589 8.589 0 0 0-2.26-2.47A8.968 8.968 0 0 0 34 5.22V14h7a8.837 8.837 0 0 0-1.36-4.74zm-15.28 0A8.837 8.837 0 0 0 23 14h7V5.22a8.968 8.968 0 0 0-3.38 1.57 8.589 8.589 0 0 0-2.26 2.47z"></path>
  <path fill="#1e81ce" d="M43 47h2v14h-2z"></path>
  <path d="M36 24h-2a2 2 0 0 1-4 0h-2a4 4 0 0 0 8 0Z"></path>
  <path d="M45.86 34.83 37 32.25v-1.6A10.023 10.023 0 0 0 42 22v-3.18a2.986 2.986 0 0 0-.04-5.65A9.9 9.9 0 0 0 35 4.46V4a2.006 2.006 0 0 0-2-2h-2a2.006 2.006 0 0 0-2 2v.46a9.9 9.9 0 0 0-6.96 8.71 2.986 2.986 0 0 0-.04 5.65V22a10.023 10.023 0 0 0 5 8.65v1.6l-8.85 2.58A7.021 7.021 0 0 0 13 41.58V57a5 5 0 0 0 5 5h32a1 1 0 0 0 1-1V41.58a7.024 7.024 0 0 0-5.14-6.75Zm-6.86.09v1.25a3.113 3.113 0 0 0-2 0v-1.84ZM35 6.58A8.108 8.108 0 0 1 39.93 13H35ZM31 4h2v9h-2Zm-2 2.58V13h-4.93A8.108 8.108 0 0 1 29 6.58ZM22 16a1 1 0 0 1 1-1h18a1 1 0 0 1 0 2H23a1 1 0 0 1-1-1Zm2 6v-3h16v3a8 8 0 0 1-16 0Zm11 9.54v3.96l-3 2.25-3-2.25v-3.96a10.013 10.013 0 0 0 6 0Zm-10 3.38 2-.59v1.84a3.113 3.113 0 0 0-2 0ZM34 60h-2v-4h2a2 2 0 0 1 0 4Zm8 0h-4.56a3.906 3.906 0 0 0 .56-2 4 4 0 0 0-4-4h-8v-6h16Zm7 0h-5V44h-2v2H25a1 1 0 0 0-1 1v7h-1a1 1 0 0 1-1-1v-9h-2v9a3.009 3.009 0 0 0 3 3h7v4H18a3.009 3.009 0 0 1-3-3V41.58a5.035 5.035 0 0 1 3.7-4.83L23 35.5V39a1 1 0 0 0 2 0 1 1 0 0 1 2 0 1 1 0 0 0 2 0v-1l2.4 1.8a1 1 0 0 0 1.2 0L35 38v1a1 1 0 0 0 2 0 1 1 0 0 1 2 0 1 1 0 0 0 2 0v-3.5l4.31 1.25A5.038 5.038 0 0 1 49 41.58Z"></path>
  <path d="M27 20h2v2h-2zM35 20h2v2h-2z"></path>
</svg>
